<svg width="1702" height="1500" version="1.1" xmlns="http://www.w3.org/2000/svg" desc="Created with imagetracer.js version 1.2.6" ><path fill="rgb(253,253,254)" stroke="rgb(253,253,254)" stroke-width="1" opacity="1" d="M 403.5 170 L 756 402.5 Q 756.8 404.8 754.5 404 L 727 429.5 Q 798.1 506.9 853 600.5 Q 876.2 640.3 896 683.5 L 918 735.5 L 933 776.5 Q 948.2 821.8 960 870.5 L 970 917.5 L 970 922.5 L 977 958.5 L 979 978.5 L 980 979.5 L 983 1012.5 L 984 1013.5 L 984 1022.5 L 985 1023.5 L 987 1059.5 L 988 1060.5 L 988 1076.5 L 989 1077.5 L 989 1099.5 L 990 1100.5 L 990 1192.5 L 989 1193.5 L 989 1217.5 L 988 1218.5 L 986 1263.5 L 985 1264.5 L 983 1296.5 L 982 1297.5 L 982 1305.5 L 981 1306.5 L 981 1314.5 L 980 1315.5 L 980 1323.5 L 979 1324.5 L 976 1355.5 L 975 1356.5 L 973 1376.5 L 971 1383.5 L 971 1389.5 L 970 1390.5 L 964 1431.5 L 950 1500 L 816.5 1500 L 816 1498.5 L 821 1480.5 L 835 1410.5 L 835 1405.5 L 843 1362.5 L 845 1342.5 L 846 1341.5 L 849 1311.5 L 850 1310.5 L 850 1302.5 L 851 1301.5 L 851 1293.5 L 853 1283.5 L 853 1273.5 L 854 1272.5 L 854 1262.5 L 855 1261.5 L 855 1250.5 L 856 1249.5 L 857 1220.5 L 858 1219.5 L 859 1165.5 L 860 1164.5 L 860 1129.5 L 859 1128.5 L 858 1074.5 L 857 1073.5 L 855 1036.5 L 854 1035.5 L 852 1008.5 L 851 1007.5 L 851 1000.5 L 850 999.5 L 844 954.5 L 836 914.5 L 824 866.5 L 798 787.5 Q 736 630 629.5 517 L 597.5 546 L 409 183.5 L 403 171.5 L 403.5 170 Z " /><path fill="rgb(33,94,153)" stroke="rgb(33,94,153)" stroke-width="1" opacity="1" d="M 0 0 L 1702 0 L 1702 1500 L 950.5 1500 L 950 1498.5 L 958 1463.5 L 958 1458.5 L 962 1442.5 L 962 1437.5 L 964 1431.5 L 964 1426.5 L 971 1389.5 L 971 1383.5 L 972 1382.5 L 975 1356.5 L 976 1355.5 L 976 1348.5 L 977 1347.5 L 977 1340.5 L 979 1332.5 L 982 1297.5 L 983 1296.5 L 983 1286.5 L 984 1285.5 L 984 1275.5 L 985 1274.5 L 985 1264.5 L 986 1263.5 L 986 1251.5 L 987 1250.5 L 988 1218.5 L 989 1217.5 L 989 1193.5 L 990 1192.5 L 990 1100.5 L 989 1099.5 L 989 1077.5 L 988 1076.5 L 988 1060.5 L 987 1059.5 L 987 1046.5 L 986 1045.5 L 984 1013.5 L 983 1012.5 L 983 1004.5 L 982 1003.5 L 982 995.5 L 981 994.5 L 977 958.5 L 970 922.5 L 970 917.5 L 960 870.5 L 951 835.5 L 937 788.5 L 918 735.5 Q 885.3 652.2 841 580.5 Q 790.5 498.5 727 429.5 L 754.5 404 L 756 404 L 754.5 401 L 403.5 170 L 403 171.5 L 597.5 546 L 629.5 517 Q 683.8 575.2 727 644.5 Q 773.3 718.2 805 806.5 L 827 877.5 L 839 928.5 L 847 972.5 L 847 978.5 L 851 1000.5 L 851 1007.5 L 852 1008.5 L 853 1025.5 L 854 1026.5 L 856 1059.5 L 857 1060.5 L 857 1073.5 L 858 1074.5 L 859 1128.5 L 860 1129.5 L 860 1164.5 L 859 1165.5 L 859 1198.5 L 858 1199.5 L 858 1219.5 L 857 1220.5 L 856 1249.5 L 855 1250.5 L 853 1283.5 L 852 1284.5 L 848 1326.5 L 847 1327.5 L 843 1362.5 L 842 1363.5 L 835 1410.5 L 833 1416.5 L 833 1421.5 L 821 1480.5 L 816 1500 L 0 1500 L 0 0 Z " /></svg>